<mxfile host="app.diagrams.net" modified="2024-06-26T13:05:31.401Z" agent="Mozilla/5.0 (Windows NT 10.0; Win64; x64) AppleWebKit/537.36 (KHTML, like Gecko) Chrome/126.0.0.0 Safari/537.36" etag="gnciIsm6kcP22Jj3Oc3W" version="24.6.3" type="github">
  <diagram name="第 1 页" id="xVXb63-4jGmrxGgCjJag">
    <mxGraphModel dx="1631" dy="414" grid="1" gridSize="10" guides="1" tooltips="1" connect="1" arrows="1" fold="1" page="1" pageScale="1" pageWidth="827" pageHeight="1169" math="0" shadow="0">
      <root>
        <mxCell id="0" />
        <mxCell id="1" parent="0" />
        <mxCell id="QVDdAqazT1d-Up0uBB4c-3" style="edgeStyle=orthogonalEdgeStyle;rounded=0;orthogonalLoop=1;jettySize=auto;html=1;exitX=0.5;exitY=1;exitDx=0;exitDy=0;entryX=0.5;entryY=0;entryDx=0;entryDy=0;" edge="1" parent="1" source="QVDdAqazT1d-Up0uBB4c-1" target="QVDdAqazT1d-Up0uBB4c-2">
          <mxGeometry relative="1" as="geometry" />
        </mxCell>
        <mxCell id="QVDdAqazT1d-Up0uBB4c-4" value="收到消息后调用&lt;div&gt;messageArrived()&lt;/div&gt;" style="edgeLabel;html=1;align=center;verticalAlign=middle;resizable=0;points=[];" vertex="1" connectable="0" parent="QVDdAqazT1d-Up0uBB4c-3">
          <mxGeometry x="-0.0933" y="3" relative="1" as="geometry">
            <mxPoint as="offset" />
          </mxGeometry>
        </mxCell>
        <mxCell id="QVDdAqazT1d-Up0uBB4c-1" value="&lt;b&gt;MsgCallback&lt;/b&gt;&lt;div&gt;&lt;div&gt;连接服务器成功后自动订阅主题connectComplete()&lt;/div&gt;&lt;/div&gt;" style="rounded=0;whiteSpace=wrap;html=1;" vertex="1" parent="1">
          <mxGeometry x="-140" y="30" width="330" height="60" as="geometry" />
        </mxCell>
        <mxCell id="QVDdAqazT1d-Up0uBB4c-8" style="edgeStyle=orthogonalEdgeStyle;rounded=0;orthogonalLoop=1;jettySize=auto;html=1;exitX=0.5;exitY=1;exitDx=0;exitDy=0;entryX=0.5;entryY=0;entryDx=0;entryDy=0;" edge="1" parent="1" source="QVDdAqazT1d-Up0uBB4c-2" target="QVDdAqazT1d-Up0uBB4c-7">
          <mxGeometry relative="1" as="geometry" />
        </mxCell>
        <mxCell id="QVDdAqazT1d-Up0uBB4c-11" value="通过processMessage()&lt;div&gt;获取对应消息处理器handler&lt;/div&gt;" style="edgeLabel;html=1;align=center;verticalAlign=middle;resizable=0;points=[];" vertex="1" connectable="0" parent="QVDdAqazT1d-Up0uBB4c-8">
          <mxGeometry x="-0.12" y="-2" relative="1" as="geometry">
            <mxPoint as="offset" />
          </mxGeometry>
        </mxCell>
        <mxCell id="QVDdAqazT1d-Up0uBB4c-14" style="edgeStyle=orthogonalEdgeStyle;rounded=0;orthogonalLoop=1;jettySize=auto;html=1;exitX=1;exitY=0.25;exitDx=0;exitDy=0;entryX=0;entryY=0.321;entryDx=0;entryDy=0;entryPerimeter=0;" edge="1" parent="1" source="QVDdAqazT1d-Up0uBB4c-2" target="QVDdAqazT1d-Up0uBB4c-12">
          <mxGeometry relative="1" as="geometry" />
        </mxCell>
        <mxCell id="QVDdAqazT1d-Up0uBB4c-2" value="&lt;b&gt;MsgService&lt;/b&gt;&lt;div&gt;&lt;b&gt;消息分发处理器&lt;/b&gt;&lt;/div&gt;" style="rounded=0;whiteSpace=wrap;html=1;" vertex="1" parent="1">
          <mxGeometry x="-35" y="150" width="120" height="60" as="geometry" />
        </mxCell>
        <mxCell id="QVDdAqazT1d-Up0uBB4c-6" style="edgeStyle=orthogonalEdgeStyle;rounded=0;orthogonalLoop=1;jettySize=auto;html=1;" edge="1" parent="1" source="QVDdAqazT1d-Up0uBB4c-5" target="QVDdAqazT1d-Up0uBB4c-1">
          <mxGeometry relative="1" as="geometry" />
        </mxCell>
        <mxCell id="QVDdAqazT1d-Up0uBB4c-5" value="&lt;b&gt;config&lt;/b&gt;&lt;div&gt;配置文件所需数据&lt;/div&gt;&lt;div&gt;创建配置客户端mqttClient&lt;/div&gt;&lt;div&gt;配置MQTT连接选项mqttConnectOptions&lt;/div&gt;&lt;div&gt;创建基于内存的客户端持久化对象mqttClientPersistence&lt;/div&gt;" style="rounded=0;whiteSpace=wrap;html=1;" vertex="1" parent="1">
          <mxGeometry x="-550" y="15" width="320" height="90" as="geometry" />
        </mxCell>
        <mxCell id="QVDdAqazT1d-Up0uBB4c-7" value="&lt;b&gt;Msghandler&lt;/b&gt;.process&lt;div&gt;&lt;b&gt;消息处理类&lt;/b&gt;&lt;/div&gt;" style="rounded=0;whiteSpace=wrap;html=1;" vertex="1" parent="1">
          <mxGeometry x="-35" y="310" width="120" height="60" as="geometry" />
        </mxCell>
        <mxCell id="QVDdAqazT1d-Up0uBB4c-15" style="edgeStyle=orthogonalEdgeStyle;rounded=0;orthogonalLoop=1;jettySize=auto;html=1;exitX=0;exitY=0.5;exitDx=0;exitDy=0;entryX=1;entryY=0.75;entryDx=0;entryDy=0;" edge="1" parent="1" source="QVDdAqazT1d-Up0uBB4c-12" target="QVDdAqazT1d-Up0uBB4c-2">
          <mxGeometry relative="1" as="geometry" />
        </mxCell>
        <mxCell id="QVDdAqazT1d-Up0uBB4c-16" value=".getMsgHandler()" style="edgeLabel;html=1;align=center;verticalAlign=middle;resizable=0;points=[];" vertex="1" connectable="0" parent="QVDdAqazT1d-Up0uBB4c-15">
          <mxGeometry x="0.2229" relative="1" as="geometry">
            <mxPoint as="offset" />
          </mxGeometry>
        </mxCell>
        <mxCell id="QVDdAqazT1d-Up0uBB4c-12" value="&lt;b&gt;MsgHandlerContext&lt;/b&gt;&lt;div&gt;&lt;b&gt;消息处理类加载器&lt;/b&gt;&lt;/div&gt;&lt;div&gt;setApplicationContext()中&lt;/div&gt;&lt;div&gt;获取topic名及其对应的handler处理器&lt;/div&gt;&lt;div&gt;并放于map集合中&lt;/div&gt;" style="rounded=0;whiteSpace=wrap;html=1;" vertex="1" parent="1">
          <mxGeometry x="240" y="120" width="170" height="140" as="geometry" />
        </mxCell>
        <mxCell id="QVDdAqazT1d-Up0uBB4c-18" style="edgeStyle=orthogonalEdgeStyle;rounded=0;orthogonalLoop=1;jettySize=auto;html=1;exitX=0;exitY=0.5;exitDx=0;exitDy=0;entryX=1;entryY=0.5;entryDx=0;entryDy=0;" edge="1" parent="1" source="QVDdAqazT1d-Up0uBB4c-17" target="QVDdAqazT1d-Up0uBB4c-7">
          <mxGeometry relative="1" as="geometry" />
        </mxCell>
        <mxCell id="QVDdAqazT1d-Up0uBB4c-21" style="edgeStyle=orthogonalEdgeStyle;rounded=0;orthogonalLoop=1;jettySize=auto;html=1;exitX=0.5;exitY=0;exitDx=0;exitDy=0;entryX=0.5;entryY=1;entryDx=0;entryDy=0;" edge="1" parent="1" source="QVDdAqazT1d-Up0uBB4c-17" target="QVDdAqazT1d-Up0uBB4c-12">
          <mxGeometry relative="1" as="geometry" />
        </mxCell>
        <mxCell id="QVDdAqazT1d-Up0uBB4c-17" value="@Topic" style="rounded=0;whiteSpace=wrap;html=1;" vertex="1" parent="1">
          <mxGeometry x="265" y="310" width="120" height="60" as="geometry" />
        </mxCell>
      </root>
    </mxGraphModel>
  </diagram>
</mxfile>
